<svg xmlns="http://www.w3.org/2000/svg" viewBox="0 0 1180 620" font-family="'Segoe UI',system-ui,sans-serif">
<defs><marker id="ah" markerWidth="11" markerHeight="11" refX="8" refY="3.3" orient="auto" markerUnits="userSpaceOnUse"><path d="M0,0 L8.5,3.3 L0,6.6 Z" fill="#55606E"/></marker><marker id="ahp" markerWidth="11" markerHeight="11" refX="8" refY="3.3" orient="auto" markerUnits="userSpaceOnUse"><path d="M0,0 L8.5,3.3 L0,6.6 Z" fill="#0F6CBD"/></marker></defs>
<rect width="1180" height="620" fill="#F4F6F9"/>
<text x="590.0" y="34" font-size="19" font-weight="750" fill="#1f2733" text-anchor="middle">Recommended design — crown corporation, high privacy</text>
<text x="590.0" y="55" font-size="12" font-weight="400" fill="#63707E" text-anchor="middle">Both gateways in their correct roles · private connectivity only · no public internet · credentials in Key Vault</text>
<rect x="30" y="80" width="250" height="470" rx="16" fill="#FBEDEB" stroke="#C74634" stroke-width="1.4"/>
<text x="155" y="106" font-size="14" font-weight="700" fill="#A2291D" text-anchor="middle">Sources</text>
<g stroke="#C74634" stroke-width="1.6" fill="#FBEDEB"><ellipse cx="155" cy="156" rx="23.0" ry="6"/><path d="M132.0,156 V200 A23.0,6 0 0 0 178.0,200 V156" fill="#FBEDEB"/><path d="M132.0,178.0 A23.0,6 0 0 0 178.0,178.0" fill="none"/></g><text x="155" y="221" font-size="12.5" font-weight="650" fill="#1f2733" text-anchor="middle">Oracle</text><text x="155" y="237" font-size="11" font-weight="400" fill="#63707E" text-anchor="middle">on-prem / OCI (private)</text>
<g transform="translate(134.0,300) scale(2.3333)"><defs><linearGradient id="ef16bf9d-a8b6-4181-b6cd-66fc5203f956" x1="2.59" y1="10.16" x2="15.41" y2="10.16" gradientUnits="userSpaceOnUse"><stop offset="0" stop-color="#005ba1" /><stop offset="0.07" stop-color="#0060a9" /><stop offset="0.36" stop-color="#0071c8" /><stop offset="0.52" stop-color="#0078d4" /><stop offset="0.64" stop-color="#0074cd" /><stop offset="0.82" stop-color="#006abb" /><stop offset="1" stop-color="#005ba1" /></linearGradient><radialGradient id="bf3846c3-4d74-4743-ab9a-f334c248bd92" cx="9.36" cy="10.57" r="7.07" gradientUnits="userSpaceOnUse"><stop offset="0" stop-color="#f2f2f2" /><stop offset="0.58" stop-color="#eee" /><stop offset="1" stop-color="#e6e6e6" /></radialGradient></defs><title>Icon-databases-130</title><path d="M9,5.14c-3.54,0-6.41-1-6.41-2.32V15.18c0,1.27,2.82,2.3,6.32,2.32H9c3.54,0,6.41-1,6.41-2.32V2.82C15.41,4.11,12.54,5.14,9,5.14Z" fill="url(#ef16bf9d-a8b6-4181-b6cd-66fc5203f956)" /><path d="M15.41,2.82c0,1.29-2.87,2.32-6.41,2.32s-6.41-1-6.41-2.32S5.46.5,9,.5s6.41,1,6.41,2.32" fill="#e8e8e8" /><path d="M13.92,2.63c0,.82-2.21,1.48-4.92,1.48S4.08,3.45,4.08,2.63,6.29,1.16,9,1.16s4.92.66,4.92,1.47" fill="#50e6ff" /><path d="M9,3a11.55,11.55,0,0,0-3.89.57A11.42,11.42,0,0,0,9,4.11a11.15,11.15,0,0,0,3.89-.58A11.84,11.84,0,0,0,9,3Z" fill="#198ab3" /><path d="M12.9,11.4V8H12v4.13h2.46V11.4ZM5.76,9.73a1.83,1.83,0,0,1-.51-.31.44.44,0,0,1-.12-.32.34.34,0,0,1,.15-.3.68.68,0,0,1,.42-.12,1.62,1.62,0,0,1,1,.29V8.11a2.58,2.58,0,0,0-1-.16,1.64,1.64,0,0,0-1.09.34,1.08,1.08,0,0,0-.42.89c0,.51.32.91,1,1.21a2.88,2.88,0,0,1,.62.36.42.42,0,0,1,.15.32.38.38,0,0,1-.16.31.81.81,0,0,1-.45.11,1.66,1.66,0,0,1-1.09-.42V12a2.17,2.17,0,0,0,1.07.24,1.88,1.88,0,0,0,1.18-.33A1.08,1.08,0,0,0,6.84,11a1.05,1.05,0,0,0-.25-.7A2.42,2.42,0,0,0,5.76,9.73ZM11,11.32a2.34,2.34,0,0,0,.33-1.26A2.32,2.32,0,0,0,11,9a1.81,1.81,0,0,0-.7-.75,2,2,0,0,0-1-.26,2.11,2.11,0,0,0-1.08.27A1.86,1.86,0,0,0,7.49,9a2.46,2.46,0,0,0-.26,1.14,2.26,2.26,0,0,0,.24,1,1.76,1.76,0,0,0,.69.74,2.06,2.06,0,0,0,1,.3l.86,1h1.21L10,12.08A1.79,1.79,0,0,0,11,11.32ZM10,11.07a.94.94,0,0,1-.76.35.92.92,0,0,1-.76-.36,1.52,1.52,0,0,1-.29-1,1.53,1.53,0,0,1,.29-1,1,1,0,0,1,.78-.37.87.87,0,0,1,.75.37,1.62,1.62,0,0,1,.27,1A1.46,1.46,0,0,1,10,11.07Z" fill="url(#bf3846c3-4d74-4743-ab9a-f334c248bd92)" /></g><text x="155" y="357" font-size="12.5" font-weight="650" fill="#1f2733" text-anchor="middle">Azure SQL DB / MI</text><text x="155" y="373" font-size="11" font-weight="400" fill="#63707E" text-anchor="middle">(private endpoint)</text>
<rect x="310" y="80" width="210" height="470" rx="16" fill="#EAF1FB" stroke="#0F6CBD" stroke-width="1.4"/>
<text x="415" y="106" font-size="14" font-weight="700" fill="#0F5AA8" text-anchor="middle">Private link</text>
<g transform="translate(393.0,160) scale(2.4444)"><defs><linearGradient id="bb37dfaa-4390-42b5-a627-52fd73968e3c" x1="5.33" y1="2.81" x2="8.74" y2="6.22" gradientTransform="translate(2.03 -1.37) rotate(-0.08)" gradientUnits="userSpaceOnUse"><stop offset="0" stop-color="#86d633" /><stop offset="1" stop-color="#5e9624" /></linearGradient><linearGradient id="b0a858c9-0e98-4e4e-9ead-d7a0786c484b" x1="11.84" y1="14.54" x2="15.24" y2="17.95" gradientUnits="userSpaceOnUse"><stop offset="0" stop-color="#86d633" /><stop offset="1" stop-color="#5e9624" /></linearGradient><linearGradient id="eee8ab19-1451-41df-b871-13f8a49d17d6" x1="-1.34" y1="14.53" x2="2.06" y2="17.93" gradientUnits="userSpaceOnUse"><stop offset="0" stop-color="#86d633" /><stop offset="1" stop-color="#5e9624" /></linearGradient></defs><title>Icon-networking-79</title><rect x="4.74" y="4.21" width="1.98" height="9.5" transform="translate(5.25 -1.66) rotate(30)" fill="#a67af4" /><rect x="11.21" y="4.37" width="1.98" height="9.5" transform="translate(-2.92 7.32) rotate(-30)" fill="#a67af4" /><rect x="7.9" y="9.97" width="1.98" height="9.5" transform="translate(23.61 5.82) rotate(90)" fill="#773adc" /><circle cx="9.07" cy="3.14" r="2.41" fill="url(#bb37dfaa-4390-42b5-a627-52fd73968e3c)" /><circle cx="15.59" cy="14.86" r="2.41" fill="url(#b0a858c9-0e98-4e4e-9ead-d7a0786c484b)" /><circle cx="2.41" cy="14.86" r="2.41" fill="url(#eee8ab19-1451-41df-b871-13f8a49d17d6)" /></g><text x="415" y="219" font-size="12.5" font-weight="650" fill="#1f2733" text-anchor="middle">ExpressRoute</text><text x="415" y="235" font-size="11" font-weight="400" fill="#63707E" text-anchor="middle">Azure–OCI / on-prem</text>
<g transform="translate(393.0,300) scale(2.4444)"><defs><linearGradient id="fd061228-22be-425e-9131-0b8cca0e5d17" x1="7.699" y1="259.22" x2="7.699" y2="263.711" gradientTransform="translate(0 -250)" gradientUnits="userSpaceOnUse"><stop offset="0.23" stop-color="#5ea0ef" /><stop offset="0.32" stop-color="#5b9fee" /><stop offset="0.48" stop-color="#509aeb" /><stop offset="0.57" stop-color="#3f92e6" /><stop offset="0.75" stop-color="#2688df" /><stop offset="0.93" stop-color="#127fd9" /></linearGradient><linearGradient id="ea9649a6-04b5-47d6-8247-ed3ab9ff9d06" x1="9.927" y1="261.091" x2="9.927" y2="265.582" gradientTransform="translate(0 -250)" gradientUnits="userSpaceOnUse"><stop offset="0.02" stop-color="#5ea0ef" /><stop offset="0.14" stop-color="#5b9fee" /><stop offset="0.23" stop-color="#5b9fee" /><stop offset="0.34" stop-color="#509aeb" /><stop offset="0.44" stop-color="#3f92e6" /><stop offset="0.63" stop-color="#2688df" /><stop offset="0.93" stop-color="#127fd9" /></linearGradient></defs><path d="M8.252,2.521H9.374V9.594H8.252Z" fill="#7a7a7a" /><path d="M10.459,2.3A1.647,1.647,0,1,1,8.813.65h0A1.646,1.646,0,0,1,10.459,2.3Z" fill="#1490df" /><path d="M8.588,9.22h-1.8a2.246,2.246,0,0,0-.348,4.461,2.415,2.415,0,0,1,.022-.835,1.418,1.418,0,0,1,.326-2.8h1.8a1.422,1.422,0,0,1,0,2.844H8.094a1.078,1.078,0,0,0-.1.45,1.022,1.022,0,0,0,.071.374h.527a2.246,2.246,0,1,0,0-4.491Z" fill="url(#fd061228-22be-425e-9131-0b8cca0e5d17)" /><path d="M11.182,11.121a2.642,2.642,0,0,1,.026.344,2.317,2.317,0,0,1-.049.491,1.418,1.418,0,0,1-.325,2.8h-1.8a1.423,1.423,0,0,1,0-2.845h.494a1.042,1.042,0,0,0,.1-.449,1.018,1.018,0,0,0-.071-.374H9.037a2.246,2.246,0,0,0,0,4.491h1.8a2.246,2.246,0,0,0,.348-4.461Z" fill="url(#ea9649a6-04b5-47d6-8247-ed3ab9ff9d06)" /><path d="M5.58,16.525l-.412.415a.28.28,0,0,1-.4,0l-4.607-4.6a.566.566,0,0,1,0-.8l.416-.412,5,4.992a.276.276,0,0,1,0,.391h0Z" fill="#50e6ff" /><path d="M5.082,7.02l.46.46a.282.282,0,0,1,0,.4L.625,12.809l-.461-.457a.566.566,0,0,1,0-.8L4.685,7.02A.28.28,0,0,1,5.082,7.02Z" fill="#1490df" /><path d="M12.417,16.851a.278.278,0,0,1-.006-.392h0l.006,0,5-4.989.416.416a.566.566,0,0,1,0,.8l-4.611,4.588a.277.277,0,0,1-.391.006h0l-.006-.005Z" fill="#50e6ff" /><path d="M13.311,7.349l4.525,4.536a.563.563,0,0,1,0,.793l-.461.46L12.454,8.206a.289.289,0,0,1,0-.4l.46-.456A.282.282,0,0,1,13.311,7.349Z" fill="#1490df" /></g><text x="415" y="359" font-size="12.5" font-weight="650" fill="#1f2733" text-anchor="middle">Private Link /</text><text x="415" y="375" font-size="11" font-weight="400" fill="#63707E" text-anchor="middle">private endpoint</text>
<text x="415" y="430" font-size="11.5" font-weight="700" fill="#0F5AA8" text-anchor="middle">no public internet</text>
<text x="415" y="448" font-size="10.5" font-weight="400" fill="#5a6b80" text-anchor="middle">MFA · Conditional Access</text>
<rect x="550" y="80" width="340" height="470" rx="16" fill="#E9F1FB" stroke="#0F6CBD" stroke-width="1.6"/>
<g transform="translate(566,92) scale(1.4444)"><defs><linearGradient id="f020fb7e-2243-4501-8153-5d69bd3c34f7" x1="9.88" y1="8.59" x2="11.52" y2="10.23" gradientTransform="translate(2.03 -0.4) rotate(-0.08)" gradientUnits="userSpaceOnUse"><stop offset="0" stop-color="#86d633" /><stop offset="1" stop-color="#5e9624" /></linearGradient><linearGradient id="b3c2bc94-8c7c-48a2-9719-6ee899a43a97" x1="6.18" y1="8.59" x2="7.81" y2="10.23" gradientUnits="userSpaceOnUse"><stop offset="0" stop-color="#86d633" /><stop offset="1" stop-color="#5e9624" /></linearGradient><linearGradient id="e900c35d-0958-4d4f-b28f-302eeaaf52f5" x1="2.48" y1="8.59" x2="4.11" y2="10.23" gradientUnits="userSpaceOnUse"><stop offset="0" stop-color="#86d633" /><stop offset="1" stop-color="#5e9624" /></linearGradient></defs><title>Icon-networking-61</title><circle cx="12.74" cy="8.99" r="1.16" fill="url(#f020fb7e-2243-4501-8153-5d69bd3c34f7)" /><circle cx="9.04" cy="9" r="1.16" fill="url(#b3c2bc94-8c7c-48a2-9719-6ee899a43a97)" /><circle cx="5.34" cy="9" r="1.16" fill="url(#e900c35d-0958-4d4f-b28f-302eeaaf52f5)" /><path d="M2.61,7.28h.94a.3.3,0,0,1,.3.3v6.94a.6.6,0,0,1-.6.6H2.31a0,0,0,0,1,0,0V7.58a.3.3,0,0,1,.3-.3Z" transform="translate(13.18 16.93) rotate(134.92)" fill="#50e6ff" /><path d="M2.56,2.91H3.5a.3.3,0,0,1,.3.3v7.43a0,0,0,0,1,0,0H2.86a.6.6,0,0,1-.6-.6V3.21a.3.3,0,0,1,.3-.3Z" transform="translate(5.66 -0.16) rotate(44.92)" fill="#1490df" /><path d="M14.15,7.28h.94a.6.6,0,0,1,.6.6v6.94a.3.3,0,0,1-.3.3h-.94a.3.3,0,0,1-.3-.3V7.28a0,0,0,0,1,0,0Z" transform="translate(12.32 -7.28) rotate(45.08)" fill="#50e6ff" /><path d="M14.81,2.91h.94a0,0,0,0,1,0,0v7.43a.3.3,0,0,1-.3.3H14.5a.3.3,0,0,1-.3-.3V3.51a.6.6,0,0,1,.6-.6Z" transform="translate(30.36 0.99) rotate(135.08)" fill="#1490df" /></g><text x="640" y="110" font-size="13" font-weight="700" fill="#0F5AA8" text-anchor="start">Azure Virtual Network</text>
<g transform="translate(618.0,150) scale(2.4444)"><defs><linearGradient id="a17deb66-d035-4524-a926-2e2e90ae2385" x1="9" y1="13.14" x2="9" y2="0.39" gradientUnits="userSpaceOnUse"><stop offset="0" stop-color="#0078d4" /><stop offset="0.82" stop-color="#5ea0ef" /></linearGradient></defs><title>Icon-networking-70</title><path d="M18,9.15a4.05,4.05,0,0,0-3.51-3.89A5.1,5.1,0,0,0,9.24.39a5.23,5.23,0,0,0-5,3.4A4.84,4.84,0,0,0,0,8.44a4.89,4.89,0,0,0,5.07,4.7,3.17,3.17,0,0,0,.44,0h8.21a.78.78,0,0,0,.22,0A4.09,4.09,0,0,0,18,9.15Z" fill="url(#a17deb66-d035-4524-a926-2e2e90ae2385)" /><path d="M9.47,8.32a4.74,4.74,0,1,0-4.73,4.82H9.47V8.32Z" fill="#50e6ff" /><path d="M11.8,15.34,9.55,17.58a.1.1,0,0,1-.16,0L7.15,15.34a.12.12,0,0,1,.08-.2H8.55A.11.11,0,0,0,8.66,15v-2.9A.11.11,0,0,1,8.78,12h1.39a.11.11,0,0,1,.11.11V15a.11.11,0,0,0,.12.11h1.32A.12.12,0,0,1,11.8,15.34Z" fill="#0078d4" /><path d="M7.15,9.82,9.36,7.61a.17.17,0,0,1,.23,0L11.8,9.82a.11.11,0,0,1-.08.19H10.4a.12.12,0,0,0-.12.12v3H8.66v-3A.12.12,0,0,0,8.55,10H7.23A.11.11,0,0,1,7.15,9.82Z" fill="#fff" /></g><text x="640" y="209" font-size="12.5" font-weight="650" fill="#1f2733" text-anchor="middle">On-prem data gateway</text><text x="640" y="225" font-size="11" font-weight="400" fill="#63707E" text-anchor="middle">hardened VM · HA · on-prem/private mirroring</text>
<g transform="translate(618.0,285) scale(2.4444)"><defs><linearGradient id="f020fb7e-2243-4501-8153-5d69bd3c34f7" x1="9.88" y1="8.59" x2="11.52" y2="10.23" gradientTransform="translate(2.03 -0.4) rotate(-0.08)" gradientUnits="userSpaceOnUse"><stop offset="0" stop-color="#86d633" /><stop offset="1" stop-color="#5e9624" /></linearGradient><linearGradient id="b3c2bc94-8c7c-48a2-9719-6ee899a43a97" x1="6.18" y1="8.59" x2="7.81" y2="10.23" gradientUnits="userSpaceOnUse"><stop offset="0" stop-color="#86d633" /><stop offset="1" stop-color="#5e9624" /></linearGradient><linearGradient id="e900c35d-0958-4d4f-b28f-302eeaaf52f5" x1="2.48" y1="8.59" x2="4.11" y2="10.23" gradientUnits="userSpaceOnUse"><stop offset="0" stop-color="#86d633" /><stop offset="1" stop-color="#5e9624" /></linearGradient></defs><title>Icon-networking-61</title><circle cx="12.74" cy="8.99" r="1.16" fill="url(#f020fb7e-2243-4501-8153-5d69bd3c34f7)" /><circle cx="9.04" cy="9" r="1.16" fill="url(#b3c2bc94-8c7c-48a2-9719-6ee899a43a97)" /><circle cx="5.34" cy="9" r="1.16" fill="url(#e900c35d-0958-4d4f-b28f-302eeaaf52f5)" /><path d="M2.61,7.28h.94a.3.3,0,0,1,.3.3v6.94a.6.6,0,0,1-.6.6H2.31a0,0,0,0,1,0,0V7.58a.3.3,0,0,1,.3-.3Z" transform="translate(13.18 16.93) rotate(134.92)" fill="#50e6ff" /><path d="M2.56,2.91H3.5a.3.3,0,0,1,.3.3v7.43a0,0,0,0,1,0,0H2.86a.6.6,0,0,1-.6-.6V3.21a.3.3,0,0,1,.3-.3Z" transform="translate(5.66 -0.16) rotate(44.92)" fill="#1490df" /><path d="M14.15,7.28h.94a.6.6,0,0,1,.6.6v6.94a.3.3,0,0,1-.3.3h-.94a.3.3,0,0,1-.3-.3V7.28a0,0,0,0,1,0,0Z" transform="translate(12.32 -7.28) rotate(45.08)" fill="#50e6ff" /><path d="M14.81,2.91h.94a0,0,0,0,1,0,0v7.43a.3.3,0,0,1-.3.3H14.5a.3.3,0,0,1-.3-.3V3.51a.6.6,0,0,1,.6-.6Z" transform="translate(30.36 0.99) rotate(135.08)" fill="#1490df" /></g><text x="640" y="344" font-size="12.5" font-weight="650" fill="#1f2733" text-anchor="middle">VNet data gateway</text><text x="640" y="360" font-size="11" font-weight="400" fill="#63707E" text-anchor="middle">managed · Azure PE sources + pipelines</text>
<g transform="translate(619.0,429) scale(2.3333)"><defs><radialGradient id="fb114c93-7c16-4540-899a-0796041629e6" cx="9" cy="9" r="8.5" gradientUnits="userSpaceOnUse"><stop offset="0.18" stop-color="#5ea0ef" /><stop offset="0.56" stop-color="#5c9fee" /><stop offset="0.69" stop-color="#559ced" /><stop offset="0.78" stop-color="#4a97e9" /><stop offset="0.86" stop-color="#3990e4" /><stop offset="0.93" stop-color="#2387de" /><stop offset="0.99" stop-color="#087bd6" /><stop offset="1" stop-color="#0078d4" /></radialGradient><radialGradient id="ec478bd3-5b38-4e7f-b661-11f355578bff" cx="38.95" cy="182.07" r="9.88" gradientTransform="translate(-28.71 -163.24) scale(0.94 0.94)" gradientUnits="userSpaceOnUse"><stop offset="0.27" stop-color="#ffd70f" /><stop offset="0.49" stop-color="#ffcb12" /><stop offset="0.88" stop-color="#feac19" /><stop offset="1" stop-color="#fea11b" /></radialGradient></defs><title>Icon-security-245</title><path id="aacf8311-a317-400f-b613-74bd00da5ce3" d="M9,.5A8.5,8.5,0,1,0,17.5,9,8.51,8.51,0,0,0,9,.5ZM9,16.34A7.34,7.34,0,1,1,16.34,9,7.34,7.34,0,0,1,9,16.34Z" fill="url(#fb114c93-7c16-4540-899a-0796041629e6)" /><circle cx="9" cy="9" r="7.34" fill="#fff" /><g><path id="bd983c41-db73-40ec-a4f4-da1213fc9924" d="M13.44,7.33a1.84,1.84,0,0,0,0-2.59h0L10.29,1.58a1.83,1.83,0,0,0-2.58,0h0L4.56,4.74a1.84,1.84,0,0,0,0,2.59L7.18,10a.51.51,0,0,1,.15.36v4.88a.63.63,0,0,0,.18.44l1.2,1.2a.41.41,0,0,0,.58,0l1.16-1.16h0l.68-.68a.25.25,0,0,0,0-.34l-.49-.49a.27.27,0,0,1,0-.37l.49-.49a.25.25,0,0,0,0-.34l-.49-.49a.27.27,0,0,1,0-.37l.49-.49a.25.25,0,0,0,0-.34l-.68-.69v-.25ZM9,2.35A1,1,0,0,1,9,4.42,1,1,0,1,1,9,2.35Z" fill="url(#ec478bd3-5b38-4e7f-b661-11f355578bff)" /><path id="ad2e7e44-9bfd-4775-8bf4-8ef26a544921" d="M8.18,15.3h0a.23.23,0,0,0,.38-.17v-4a.24.24,0,0,0-.11-.2h0a.22.22,0,0,0-.34.2v4A.28.28,0,0,0,8.18,15.3Z" fill="#ff9300" opacity="0.75" /><rect id="a996fbff-3936-4b24-b407-369336c143ba" x="6.48" y="5.79" width="5.17" height="0.61" rx="0.28" fill="#ff9300" opacity="0.75" /><rect id="bb12d31c-3352-4a18-87dd-a169a4a8721d" x="6.48" y="6.78" width="5.17" height="0.61" rx="0.28" fill="#ff9300" opacity="0.75" /></g></g><text x="640" y="491" font-size="12.5" font-weight="650" fill="#1f2733" text-anchor="middle">Key Vault</text><text x="640" y="507" font-size="11" font-weight="400" fill="#63707E" text-anchor="middle">credentials → both gateways</text>
<path d="M202,178 L372,172" stroke="#C0392B" stroke-width="2" fill="none" marker-end="url(#ah)"/>
<path d="M202,322 L372,322" stroke="#0F6CBD" stroke-width="2" fill="none" marker-end="url(#ahp)"/>
<path d="M438,178 L596,172" stroke="#C0392B" stroke-width="2" fill="none" marker-end="url(#ah)"/>
<path d="M438,322 L596,307" stroke="#0F6CBD" stroke-width="2" fill="none" marker-end="url(#ahp)"/>
<rect x="920" y="210" width="230" height="210" rx="12" fill="#E6F4EF" stroke="#0E7C5F" stroke-width="1.6"/><text x="1035.0" y="232" font-size="14" font-weight="750" fill="#0B6B52" text-anchor="middle">Microsoft Fabric</text><text x="1035.0" y="250" font-size="11" font-weight="400" fill="#3a6b5c" text-anchor="middle">OneLake · medallion · Direct Lake</text><text x="1035.0" y="267" font-size="10.5" font-weight="400" fill="#3a6b5c" text-anchor="middle">security: Entra groups · RLS/CLS · masking</text>
<path d="M664,172 L916,248" stroke="#C0392B" stroke-width="2" fill="none" marker-end="url(#ah)"/>
<path d="M664,307 L916,352" stroke="#0F6CBD" stroke-width="2" fill="none" marker-end="url(#ahp)"/>
<text x="1035" y="440" font-size="11" font-weight="600" fill="#0B6B52" text-anchor="middle">Direct Lake → Power BI</text>
<text x="590.0" y="576" font-size="10.5" font-weight="500" fill="#55606E" text-anchor="middle">VNet gateway = managed path for Azure/private-endpoint sources &amp; pipelines.  On-prem gateway = private-source mirroring — Oracle needs OPDG only; SQL Server / Snowflake / Azure SQL accept either.</text>
<text x="590.0" y="598" font-size="10" font-weight="italic" fill="#8A93A0" text-anchor="middle" font-style="italic">Official Azure icons: Virtual Networks · On-premises Data Gateways · Key Vaults · ExpressRoute · Private Link · SQL Database · Virtual Machine.</text>
</svg>